<svg width="24" height="24" viewBox="0 0 24 24" fill="none" xmlns="http://www.w3.org/2000/svg">
<path d="M23.3531 10.4388C23.3524 10.4383 23.3518 10.4376 23.3513 10.437L13.5612 0.647344C13.1439 0.229781 12.589 0 11.9989 0C11.4088 0 10.854 0.229781 10.4365 0.647297L0.651482 10.432C0.648201 10.4353 0.644732 10.4388 0.641638 10.4421C-0.21533 11.304 -0.21383 12.7023 0.645857 13.562C1.03858 13.955 1.55711 14.1824 2.11178 14.2064C2.13447 14.2086 2.1572 14.2096 2.18008 14.2096H2.57008V21.4141C2.57008 22.84 3.73023 24 5.15608 24H8.98628C9.37464 24 9.6894 23.685 9.6894 23.2968V17.6484C9.6894 16.9979 10.2188 16.4687 10.8693 16.4687H13.1285C13.7791 16.4687 14.3082 16.9979 14.3082 17.6484V23.2969C14.3082 23.685 14.623 24 15.0114 24H18.8416C20.2676 24 21.4276 22.84 21.4276 21.4142V14.2097H21.7894C22.3794 14.2097 22.9342 13.9799 23.3518 13.5622C24.2124 12.7012 24.2128 11.3003 23.3531 10.4388L23.3531 10.4388ZM22.3574 12.568C22.283 12.6428 22.1945 12.7022 22.097 12.7426C21.9995 12.783 21.8949 12.8037 21.7894 12.8035H20.7244C20.336 12.8035 20.0213 13.1182 20.0213 13.5066V21.4142C20.0213 22.0646 19.4921 22.5938 18.8415 22.5938H15.7145V17.6484C15.7145 16.2226 14.5545 15.0624 13.1284 15.0624H10.8694C9.44336 15.0624 8.2832 16.2226 8.2832 17.6484V22.5938H5.15617C4.50573 22.5938 3.97637 22.0645 3.97637 21.4142V13.5066C3.97637 13.1182 3.66161 12.8034 3.27325 12.8034H2.22658C2.21561 12.8027 2.20462 12.8022 2.19362 12.8019C1.98414 12.7983 1.78769 12.7152 1.6405 12.5677C1.32737 12.2546 1.32737 11.7451 1.6405 11.4318C1.64064 11.4318 1.64064 11.4316 1.64083 11.4314L1.64139 11.4308L11.4311 1.64156C11.5055 1.5667 11.5939 1.50736 11.6914 1.46696C11.7889 1.42657 11.8934 1.40593 11.9989 1.40625C12.2133 1.40625 12.4149 1.48973 12.5667 1.64156L22.3542 11.4289L22.3588 11.4333C22.6703 11.747 22.6697 12.2555 22.3574 12.568Z" fill="#9E9E9E"/>
</svg>
