<svg width="22" height="22" viewBox="0 0 22 22" fill="none" xmlns="http://www.w3.org/2000/svg">
<path d="M11 10.52C11.9493 10.52 12.8774 10.2385 13.6667 9.7111C14.4561 9.18367 15.0713 8.43401 15.4346 7.55693C15.7979 6.67984 15.893 5.71472 15.7078 4.78361C15.5226 3.8525 15.0654 2.99723 14.3941 2.32593C13.7228 1.65464 12.8675 1.19749 11.9364 1.01228C11.0053 0.827068 10.0402 0.922124 9.16312 1.28542C8.28603 1.64872 7.53638 2.26395 7.00894 3.05331C6.48151 3.84266 6.2 4.7707 6.2 5.72005C6.2 6.99308 6.70571 8.21398 7.60589 9.11416C8.50606 10.0143 9.72696 10.52 11 10.52ZM11 1.88005C11.7595 1.88005 12.5019 2.10526 13.1334 2.5272C13.7649 2.94915 14.2571 3.54887 14.5477 4.25054C14.8383 4.95221 14.9144 5.72431 14.7662 6.46919C14.618 7.21408 14.2523 7.8983 13.7153 8.43534C13.1783 8.97237 12.494 9.33809 11.7491 9.48626C11.0043 9.63443 10.2322 9.55838 9.53049 9.26774C8.82883 8.9771 8.2291 8.48492 7.80715 7.85343C7.38521 7.22195 7.16 6.47953 7.16 5.72005C7.16 4.70161 7.56457 3.7249 8.28471 3.00476C9.00485 2.28462 9.98157 1.88005 11 1.88005ZM12.0176 11.48H9.9824C8.78852 11.4838 7.60708 11.7227 6.50553 12.1831C5.40398 12.6434 4.40389 13.3163 3.56237 14.1631C2.72085 15.01 2.05437 16.0143 1.60099 17.1188C1.14761 18.2232 0.91621 19.4062 0.919998 20.6C0.919998 20.7273 0.97057 20.8494 1.06059 20.9395C1.1506 21.0295 1.27269 21.08 1.4 21.08H20.6C20.7332 21.0679 20.8569 21.0057 20.946 20.9059C21.0351 20.8061 21.083 20.6762 21.08 20.5424C21.0749 18.1405 20.1185 15.8384 18.4201 14.14C16.7216 12.4415 14.4195 11.4851 12.0176 11.48ZM1.88 20.12C1.9928 18.0485 2.89409 16.0986 4.39896 14.6705C5.90383 13.2424 7.89817 12.4443 9.9728 12.44H12.008C14.0859 12.4394 16.0851 13.2353 17.5941 14.6639C19.103 16.0925 20.007 18.0452 20.12 20.12H1.88Z" fill="#9E9E9E"/>
</svg>
