<svg width="21" height="21" viewBox="0 0 21 21" fill="none" xmlns="http://www.w3.org/2000/svg">
<path d="M10.0801 9.6C12.731 9.6 14.8801 7.45097 14.8801 4.8C14.8801 2.14903 12.731 0 10.0801 0C7.42909 0 5.28006 2.14903 5.28006 4.8C5.28006 7.45097 7.42909 9.6 10.0801 9.6Z" fill="black"/>
<path d="M11.0976 10.5601H9.06245C7.86857 10.5638 6.68713 10.8027 5.58558 11.2631C4.48403 11.7235 3.48394 12.3963 2.64242 13.2432C1.8009 14.09 1.13442 15.0944 0.681039 16.1988C0.227659 17.3033 -0.0037423 18.4862 4.57661e-05 19.6801C4.57661e-05 19.8074 0.0506171 19.9295 0.140635 20.0195C0.230652 20.1095 0.352742 20.1601 0.480046 20.1601H19.68C19.8133 20.1479 19.9369 20.0857 20.026 19.9859C20.1151 19.8861 20.163 19.7562 20.16 19.6225C20.155 17.2205 19.1986 14.9184 17.5001 13.22C15.8017 11.5215 13.4996 10.5651 11.0976 10.5601Z" fill="black"/>
</svg>
