<svg width="24" height="22" viewBox="0 0 24 22" fill="none" xmlns="http://www.w3.org/2000/svg">
<path d="M7.78125 14.0627H20.4846C20.7991 14.0627 21.0751 13.8547 21.1602 13.5525L23.9729 3.70861C24.0333 3.49641 23.9919 3.26845 23.8588 3.09211C23.7931 3.00528 23.7082 2.93484 23.6108 2.88633C23.5133 2.83782 23.4059 2.81255 23.2971 2.8125H6.15797L5.65533 0.550781C5.62065 0.394545 5.53372 0.254812 5.40888 0.154669C5.28405 0.0545258 5.12879 -3.53541e-05 4.96875 1.71872e-08H0.703125C0.314531 1.71872e-08 0 0.314531 0 0.703125C0 1.09186 0.314531 1.40625 0.703125 1.40625H4.40437L6.94355 12.832C6.19641 13.1569 5.67188 13.9005 5.67188 14.7658C5.67188 15.9289 6.61814 16.8752 7.78125 16.8752H20.4846C20.8733 16.8752 21.1877 16.5608 21.1877 16.1721C21.1877 15.7835 20.8733 15.4689 20.4846 15.4689H7.78125C7.39397 15.4689 7.07812 15.1538 7.07812 14.7658C7.07812 14.3778 7.39397 14.0627 7.78125 14.0627ZM7.07812 18.9846C7.07812 20.1478 8.02444 21.0939 9.18769 21.0939C10.3507 21.0939 11.2971 20.1478 11.2971 18.9846C11.2971 17.8215 10.3507 16.8752 9.18769 16.8752C8.02444 16.8752 7.07812 17.8215 7.07812 18.9846ZM16.9689 18.9846C16.9689 20.1478 17.9152 21.0939 19.0783 21.0939C20.2416 21.0939 21.1877 20.1478 21.1877 18.9846C21.1877 17.8215 20.2416 16.8752 19.0783 16.8752C17.9152 16.8752 16.9689 17.8215 16.9689 18.9846Z" fill="black"/>
</svg>
