<svg width="24" height="24" viewBox="0 0 24 24" fill="none" xmlns="http://www.w3.org/2000/svg">
<path d="M7.73251 16.0002H7.73364C7.73457 16.0002 7.73551 16 7.7364 16H20.4844C20.6372 16 20.7858 15.9433 20.9078 15.8386C21.0298 15.734 21.1184 15.5869 21.1604 15.4198L23.9729 4.21979C24.0028 4.10075 24.008 3.97544 23.9882 3.85373C23.9683 3.73201 23.9238 3.61721 23.8583 3.51835C23.7928 3.41948 23.708 3.33927 23.6105 3.28403C23.5131 3.22879 23.4058 3.20002 23.2969 3.2H6.11096L5.60837 0.626453C5.57364 0.448762 5.48669 0.289856 5.36189 0.175964C5.23708 0.0620723 5.08187 2.4585e-06 4.92188 0L0.703126 0C0.314766 0 0 0.358133 0 0.8C0 1.24187 0.314766 1.6 0.703126 1.6H4.35793C4.4469 2.056 6.76318 13.9156 6.8965 14.5979C6.14926 14.9675 5.62501 15.8153 5.62501 16.8C5.62501 18.1233 6.57132 19.2 7.73439 19.2H20.4844C20.8728 19.2 21.1875 18.8419 21.1875 18.4C21.1875 17.9581 20.8728 17.6 20.4844 17.6H7.73439C7.34673 17.6 7.03126 17.2411 7.03126 16.8C7.03126 16.3596 7.34565 16.0012 7.73251 16.0002ZM22.3648 4.8L19.954 14.4H8.29839L6.42339 4.8H22.3648ZM7.03126 21.6C7.03126 22.9234 7.97758 24 9.14064 24C10.3037 24 11.25 22.9233 11.25 21.6C11.25 20.2767 10.3037 19.2 9.14064 19.2C7.97758 19.2 7.03126 20.2767 7.03126 21.6ZM9.14064 20.8C9.5283 20.8 9.84377 21.1589 9.84377 21.6C9.84377 22.0411 9.5283 22.4 9.14064 22.4C8.75298 22.4 8.43751 22.0411 8.43751 21.6C8.43751 21.1589 8.75298 20.8 9.14064 20.8ZM16.9688 21.6C16.9688 22.9234 17.9151 24 19.0782 24C20.2412 24 21.1875 22.9233 21.1875 21.6C21.1875 20.2767 20.2412 19.2 19.0782 19.2C17.9151 19.2 16.9688 20.2767 16.9688 21.6ZM19.0782 20.8C19.4658 20.8 19.7813 21.1589 19.7813 21.6C19.7813 22.0411 19.4658 22.4 19.0782 22.4C18.6905 22.4 18.375 22.0411 18.375 21.6C18.375 21.1589 18.6905 20.8 19.0782 20.8Z" fill="#9E9E9E"/>
</svg>
