<svg width="24" height="24" viewBox="0 0 24 24" fill="none" xmlns="http://www.w3.org/2000/svg">
<path d="M21.6 0H2.4C1.0768 0 0 1.15374 0 2.57149V16.2861C0 17.7039 1.0768 18.8576 2.4 18.8576H4.8V23.1434C4.80026 23.3048 4.84298 23.4628 4.92327 23.5994C5.00356 23.7359 5.11816 23.8454 5.25391 23.9153C5.38966 23.9852 5.54105 24.0127 5.69071 23.9946C5.84037 23.9765 5.98223 23.9135 6.1 23.8129L11.8808 18.8576H21.6C22.9232 18.8576 24 17.7039 24 16.2861V2.57149C24 1.15374 22.9232 0 21.6 0ZM12 12.0003H5.6C5.38783 12.0003 5.18434 11.91 5.03431 11.7492C4.88429 11.5885 4.8 11.3705 4.8 11.1431C4.8 10.9158 4.88429 10.6978 5.03431 10.537C5.18434 10.3763 5.38783 10.286 5.6 10.286H12C12.2122 10.286 12.4157 10.3763 12.5657 10.537C12.7157 10.6978 12.8 10.9158 12.8 11.1431C12.8 11.3705 12.7157 11.5885 12.5657 11.7492C12.4157 11.91 12.2122 12.0003 12 12.0003ZM18.4 8.57164H5.6C5.38783 8.57164 5.18434 8.48133 5.03431 8.32059C4.88429 8.15984 4.8 7.94181 4.8 7.71448C4.8 7.48714 4.88429 7.26912 5.03431 7.10837C5.18434 6.94762 5.38783 6.85731 5.6 6.85731H18.4C18.6122 6.85731 18.8157 6.94762 18.9657 7.10837C19.1157 7.26912 19.2 7.48714 19.2 7.71448C19.2 7.94181 19.1157 8.15984 18.9657 8.32059C18.8157 8.48133 18.6122 8.57164 18.4 8.57164Z" fill="black"/>
</svg>
