<svg width="24" height="22" viewBox="0 0 24 22" fill="none" xmlns="http://www.w3.org/2000/svg">
<path d="M6 21.5C5.80115 21.4998 5.6105 21.4207 5.46989 21.2801C5.32928 21.1395 5.2502 20.9489 5.25 20.75V17H3C1.7595 17 0.75 15.9905 0.75 14.75V2.75C0.75 1.5095 1.7595 0.5 3 0.5H21C22.2405 0.5 23.25 1.5095 23.25 2.75V14.75C23.25 15.9905 22.2405 17 21 17H11.8882L6.46875 21.3358C6.33575 21.4423 6.17039 21.5002 6 21.5ZM3 2C2.586 2 2.25 2.33675 2.25 2.75V14.75C2.25 15.1632 2.586 15.5 3 15.5H6C6.19891 15.5 6.38968 15.579 6.53033 15.7197C6.67098 15.8603 6.75 16.0511 6.75 16.25V19.19L11.1562 15.6642C11.2893 15.5578 11.4546 15.4999 11.625 15.5H21C21.414 15.5 21.75 15.1632 21.75 14.75V2.75C21.75 2.33675 21.414 2 21 2H3Z" fill="#9E9E9E"/>
<path d="M18 8H6C5.80109 8 5.61032 7.92098 5.46967 7.78033C5.32902 7.63968 5.25 7.44891 5.25 7.25C5.25 7.05109 5.32902 6.86032 5.46967 6.71967C5.61032 6.57902 5.80109 6.5 6 6.5H18C18.1989 6.5 18.3897 6.57902 18.5303 6.71967C18.671 6.86032 18.75 7.05109 18.75 7.25C18.75 7.44891 18.671 7.63968 18.5303 7.78033C18.3897 7.92098 18.1989 8 18 8ZM12 11H6C5.80109 11 5.61032 10.921 5.46967 10.7803C5.32902 10.6397 5.25 10.4489 5.25 10.25C5.25 10.0511 5.32902 9.86032 5.46967 9.71967C5.61032 9.57902 5.80109 9.5 6 9.5H12C12.1989 9.5 12.3897 9.57902 12.5303 9.71967C12.671 9.86032 12.75 10.0511 12.75 10.25C12.75 10.4489 12.671 10.6397 12.5303 10.7803C12.3897 10.921 12.1989 11 12 11Z" fill="#9E9E9E"/>
</svg>
